# xmcd
#
# Track frame offsets:
#	150
#	2212
#	8967
#	11957
#	13770
#	15467
#	26150
#	30325
#	32260
#	36260
#	42805
#	44242
#	46147
#	59627
#	64400
#	66530
#	67752
#	71362
#	82225
#	86645
#	89505
#	91267
#	94402
#	99515
#	104535
#	111765
#	113980
#	116337
#	119400
#	135590
#	149737
#
# Disc length: 2198 seconds
#
# Revision: 1
# Processed by: cddbd v1.5.1PL0 Copyright (c) Steve Scherf et al.
# Submitted via: CDex 1.50Beta5
#
DISCID=b708941f
DTITLE=さまざまなアーティスト - じゅにあ2
DYEAR=1900
DGENRE=
TTITLE0=ヤマハ/コスミック・スペース
TTITLE1=ヤマハ/コスミック・スペース
TTITLE2=木村真実/バーバ・ヤガー
TTITLE3=木村真実/バーバ・ヤガー
TTITLE4=木村真実/バーバ・ヤガー
TTITLE5=P.ジュナン/ベニスの謝肉祭
TTITLE6=ハンガリー民謡/クリケッツウエディング
TTITLE7=A.ミュラー/おはよう
TTITLE8=A.ミュラー/おはよう
TTITLE9=アメリカ民謡/いなかのバイオリンひき
TTITLE10=山根沙織/2ひきのあおむし
TTITLE11=山根沙織/2ひきのあおむし
TTITLE12=A.ゴゥディケ/バグパイプのおどり
TTITLE13=S.ヘラー/小さななだれ
TTITLE14=外国曲/ぞう
TTITLE15=外国曲/ぞう
TTITLE16=外国曲/ぞう
TTITLE17=藤田加奈/いたずらな子リス
TTITLE18=C.W.グルック/ミュゼット
TTITLE19=T.エステン/かわいいこねこ
TTITLE20=T.エステン/かわいいこねこ
TTITLE21=T.エステン/かわいいこねこ
TTITLE22=T.エステン/かわいいこねこ
TTITLE23=藤原整子/王様かいぞく船
TTITLE24=藤原整子/王様かいぞく船
TTITLE25=藤原整子/王様かいぞく船
TTITLE26=藤原整子/王様かいぞく船
TTITLE27=藤原整子/王様かいぞく船
TTITLE28=詩:遠藤幸三/曲:若松正司/黄色いわすれがさ
TTITLE29=詩:水口肇/曲:岡崎律子/えがおであくしゅ
TTITLE30=詩:水口肇/曲:岡崎律子/ぼくらはちきゅうのこどもたち
EXTD=
EXTT0=
EXTT1=
EXTT2=
EXTT3=
EXTT4=
EXTT5=
EXTT6=
EXTT7=
EXTT8=
EXTT9=
EXTT10=
EXTT11=
EXTT12=
EXTT13=
EXTT14=
EXTT15=
EXTT16=
EXTT17=
EXTT18=
EXTT19=
EXTT20=
EXTT21=
EXTT22=
EXTT23=
EXTT24=
EXTT25=
EXTT26=
EXTT27=
EXTT28=
EXTT29=
EXTT30=
PLAYORDER=
